<svg width="104" height="17" viewBox="0 0 104 17" fill="none" xmlns="http://www.w3.org/2000/svg">
<path d="M7.38272 2.25534C7.59605 1.69268 8.40338 1.69268 8.61738 2.25534L9.99738 6.07801C10.0941 6.33134 10.3401 6.50001 10.6147 6.50001H14.0061C14.6327 6.50001 14.9061 7.28001 14.4134 7.66201L12.0001 9.83334C11.8919 9.91645 11.8129 10.0317 11.7744 10.1624C11.7358 10.2932 11.7397 10.4329 11.7854 10.5613L12.6667 14.2967C12.8814 14.8967 12.1867 15.412 11.6614 15.0427L8.38338 12.9627C8.27113 12.8838 8.13726 12.8414 8.00005 12.8414C7.86284 12.8414 7.72897 12.8838 7.61672 12.9627L4.33872 15.0427C3.81405 15.412 3.11872 14.896 3.33338 14.2967L4.21472 10.5613C4.26044 10.4329 4.26429 10.2932 4.22572 10.1624C4.18716 10.0317 4.10816 9.91645 4.00005 9.83334L1.58672 7.66201C1.09338 7.28001 1.36805 6.50001 1.99338 6.50001H5.38472C5.51825 6.50045 5.64876 6.46035 5.759 6.38499C5.86923 6.30964 5.95399 6.20259 6.00205 6.07801L7.38205 2.25534H7.38272Z" fill="#F7AB3A" stroke="#F7AB3A" stroke-width="0.5" stroke-linecap="round" stroke-linejoin="round"/>
<path d="M29.3827 2.25534C29.5961 1.69268 30.4034 1.69268 30.6174 2.25534L31.9974 6.07801C32.0941 6.33134 32.3401 6.50001 32.6147 6.50001H36.0061C36.6327 6.50001 36.9061 7.28001 36.4134 7.66201L34.0001 9.83334C33.8919 9.91645 33.8129 10.0317 33.7744 10.1624C33.7358 10.2932 33.7397 10.4329 33.7854 10.5613L34.6667 14.2967C34.8814 14.8967 34.1867 15.412 33.6614 15.0427L30.3834 12.9627C30.2711 12.8838 30.1373 12.8414 30.0001 12.8414C29.8628 12.8414 29.729 12.8838 29.6167 12.9627L26.3387 15.0427C25.8141 15.412 25.1187 14.896 25.3334 14.2967L26.2147 10.5613C26.2604 10.4329 26.2643 10.2932 26.2257 10.1624C26.1872 10.0317 26.1082 9.91645 26.0001 9.83334L23.5867 7.66201C23.0934 7.28001 23.3681 6.50001 23.9934 6.50001H27.3847C27.5182 6.50045 27.6488 6.46035 27.759 6.38499C27.8692 6.30964 27.954 6.20259 28.0021 6.07801L29.3821 2.25534H29.3827Z" fill="#F7AB3A"/>
<path d="M51.3827 2.25534C51.5961 1.69268 52.4034 1.69268 52.6174 2.25534L53.9974 6.07801C54.0941 6.33134 54.3401 6.50001 54.6147 6.50001H58.0061C58.6327 6.50001 58.9061 7.28001 58.4134 7.66201L56.0001 9.83334C55.8919 9.91645 55.8129 10.0317 55.7744 10.1624C55.7358 10.2932 55.7397 10.4329 55.7854 10.5613L56.6667 14.2967C56.8814 14.8967 56.1867 15.412 55.6614 15.0427L52.3834 12.9627C52.2711 12.8838 52.1373 12.8414 52.0001 12.8414C51.8628 12.8414 51.729 12.8838 51.6167 12.9627L48.3387 15.0427C47.8141 15.412 47.1187 14.896 47.3334 14.2967L48.2147 10.5613C48.2604 10.4329 48.2643 10.2932 48.2257 10.1624C48.1872 10.0317 48.1082 9.91645 48.0001 9.83334L45.5867 7.66201C45.0934 7.28001 45.3681 6.50001 45.9934 6.50001H49.3847C49.5182 6.50045 49.6488 6.46035 49.759 6.38499C49.8692 6.30964 49.954 6.20259 50.0021 6.07801L51.3821 2.25534H51.3827Z" fill="#F7AB3A"/>
<path d="M73.3827 2.25534C73.5961 1.69268 74.4034 1.69268 74.6174 2.25534L75.9974 6.07801C76.0941 6.33134 76.3401 6.50001 76.6147 6.50001H80.0061C80.6327 6.50001 80.9061 7.28001 80.4134 7.66201L78.0001 9.83334C77.8919 9.91645 77.8129 10.0317 77.7744 10.1624C77.7358 10.2932 77.7397 10.4329 77.7854 10.5613L78.6667 14.2967C78.8814 14.8967 78.1867 15.412 77.6614 15.0427L74.3834 12.9627C74.2711 12.8838 74.1373 12.8414 74.0001 12.8414C73.8628 12.8414 73.729 12.8838 73.6167 12.9627L70.3387 15.0427C69.8141 15.412 69.1187 14.896 69.3334 14.2967L70.2147 10.5613C70.2604 10.4329 70.2643 10.2932 70.2257 10.1624C70.1872 10.0317 70.1082 9.91645 70.0001 9.83334L67.5867 7.66201C67.0934 7.28001 67.3681 6.50001 67.9934 6.50001H71.3847C71.5182 6.50045 71.6488 6.46035 71.759 6.38499C71.8692 6.30964 71.954 6.20259 72.0021 6.07801L73.3821 2.25534H73.3827Z" stroke="#C4CDD5" stroke-width="0.5" stroke-linecap="round" stroke-linejoin="round"/>
<path d="M95.3827 2.25534C95.5961 1.69268 96.4034 1.69268 96.6174 2.25534L97.9974 6.07801C98.0941 6.33134 98.3401 6.50001 98.6147 6.50001H102.006C102.633 6.50001 102.906 7.28001 102.413 7.66201L100 9.83334C99.8919 9.91645 99.8129 10.0317 99.7744 10.1624C99.7358 10.2932 99.7397 10.4329 99.7854 10.5613L100.667 14.2967C100.881 14.8967 100.187 15.412 99.6614 15.0427L96.3834 12.9627C96.2711 12.8838 96.1373 12.8414 96.0001 12.8414C95.8628 12.8414 95.729 12.8838 95.6167 12.9627L92.3387 15.0427C91.8141 15.412 91.1187 14.896 91.3334 14.2967L92.2147 10.5613C92.2604 10.4329 92.2643 10.2932 92.2257 10.1624C92.1872 10.0317 92.1082 9.91645 92.0001 9.83334L89.5867 7.66201C89.0934 7.28001 89.3681 6.50001 89.9934 6.50001H93.3847C93.5182 6.50045 93.6488 6.46035 93.759 6.38499C93.8692 6.30964 93.954 6.20259 94.0021 6.07801L95.3821 2.25534H95.3827Z" stroke="#C4CDD5" stroke-width="0.5" stroke-linecap="round" stroke-linejoin="round"/>
</svg>
